# xmcd CD database file
# Copyright (C) 1997 Ti Kan
# 
# Track frame offsets:
#     150
#     11572
#     21492
#     31972
#     41882
#     53110
#     63907
#     75827
#     89427
#     101392
# 
# Disc length: 1521 seconds
# 
# Revision: 1
# Processed by: cddbd v1.4b41PL1 Copyright (c) Steve Scherf et al.
# Submitted via: DiscPlay 4.0.2
# 
DISCID=7205ef0a
DTITLE=Many - Six Days On The Road
DYEAR=1900
DGENRE=
TTITLE0=Sea Of Heartbreak
TTITLE1=Please Help Me, I'm Falling (In Lovve With You)
TTITLE2=Abilene
TTITLE3=Make The World Go Away
TTITLE4=King Of The Road
TTITLE5=Wings Of A Dove
TTITLE6=There Goes My Everything
TTITLE7=Big Bad John
TTITLE8=The End Of The World
TTITLE9=Wolverton Mountain
EXTD=
EXTT0=
EXTT1=
EXTT2=
EXTT3=
EXTT4=
EXTT5=
EXTT6=
EXTT7=
EXTT8=
EXTT9=
PLAYORDER=
